<svg version="1.1"
      xmlns="http://www.w3.org/2000/svg"
      xmlns:xlink="http://www.w3.org/1999/xlink"  id="snapshot-28915" width="250" height="250" viewBox="0 0 250 250"><desc>This image was made on Patterninja.com</desc><defs>
<!-- image 82158 -->
<g id="transformed-82158" data-image="82158" transform="translate(-125, -125) rotate(0, 125, 125)"><g><svg version="1.1" width="250px" height="250px" viewBox="0 0 250 250"><g id="original-82158"><svg xmlns="http://www.w3.org/2000/svg" viewBox="0 0 199 199" xmlns:xlink="http://www.w3.org/1999/xlink" version="1.1" preserveAspectRatio="xMidYMid meet">
  <path fill-rule="evenodd" d="M114.085 103.404c58.707 15.731 39.275 49.392-3.701 6.413 42.976 42.979 9.32 62.41-6.412 3.7 15.732 58.71-23.134 58.71-7.403 0-15.731 58.71-49.39 39.279-6.41-3.7-42.98 42.979-62.411 9.318-3.702-6.413-58.71 15.731-58.71-23.132 0-7.402-58.71-15.73-39.278-49.39 3.701-6.41-42.979-42.98-9.32-62.411 6.41-3.702-15.73-58.71 23.136-58.71 7.404 0 15.732-58.71 49.388-39.277 6.412 3.702 42.976-42.98 62.408-9.32 3.7 6.41 58.708-15.73 58.708 23.133 0 7.402zm53.866 35.376a6.336 6.336 0 1 1 10.976 6.335 6.338 6.338 0 0 1-8.658 2.32 6.338 6.338 0 0 1-2.318-8.655zm-67.68 51.747a6.336 6.336 0 1 1 0-12.672 6.336 6.336 0 1 1 0 12.672zm-70-43.091a6.338 6.338 0 1 1 2.32-8.656 6.337 6.337 0 0 1-2.32 8.656zm2.319-86.807a6.338 6.338 0 0 1-8.656 2.32 6.337 6.337 0 1 1 8.656-2.32zM100.27 8.88a6.335 6.335 0 0 1 6.337 6.336 6.336 6.336 0 1 1-6.337-6.336zm70 43.093a6.336 6.336 0 0 1 8.655 2.319 6.337 6.337 0 1 1-8.656-2.32zm-30.923 115.413a6.336 6.336 0 1 1 6.335 10.972 6.334 6.334 0 0 1-8.655-2.319 6.331 6.331 0 0 1 2.32-8.653zm-75.832 8.654a6.337 6.337 0 1 1-10.974-6.339 6.337 6.337 0 0 1 10.974 6.34zm-47.732-70a6.335 6.335 0 0 1-6.334-6.335 6.336 6.336 0 1 1 6.334 6.336zm45.414-74.016a6.338 6.338 0 1 1 2.318-8.657 6.34 6.34 0 0 1-2.318 8.657zm75.83-8.657a6.337 6.337 0 0 1 8.655-2.32 6.336 6.336 0 1 1-6.335 10.977 6.338 6.338 0 0 1-2.32-8.657zm47.73 70.001a6.336 6.336 0 1 1-6.336 6.337c0-3.5 2.837-6.337 6.336-6.337zm-60.718-.032c101.012-27.067 67.58-84.979-6.369-11.032 73.948-73.947 16.038-107.383-11.03-6.367 27.068-101.016-39.806-101.016-12.738 0C66.834-25.079 8.922 8.357 82.87 82.304 8.923 8.357-24.511 66.269 76.503 93.336c-101.014-27.067-101.014 39.804 0 12.737-101.014 27.067-67.58 84.98 6.368 11.03-73.948 73.95-16.037 107.384 11.03 6.37-27.067 101.014 39.807 101.014 12.739 0 27.068 101.014 84.978 67.58 11.03-6.37 73.948 73.95 107.38 16.037 6.37-11.03 101.01 27.067 101.01-39.804 0-12.737z" fill="rgba(238, 238, 238, 1)" stroke="none"/>
  <path fill-rule="evenodd" d="M117.552 99.128c0 9.225-7.479 16.705-16.705 16.705-9.226 0-16.704-7.48-16.704-16.705 0-9.226 7.478-16.707 16.704-16.707s16.705 7.481 16.705 16.707" fill="rgba(238, 238, 238, 1)" stroke="none"/>
</svg>
</g></svg></g></g>
<!-- /image 82158 -->
</defs><rect x="0" y="0" width="250" height="250" fill="rgba(255, 255, 255, 0)"></rect><use xlink:href="#transformed-82158" transform="translate(-250, -250)"></use><use xlink:href="#transformed-82158" transform="translate(0, -250)"></use><use xlink:href="#transformed-82158" transform="translate(250, -250)"></use><use xlink:href="#transformed-82158" transform="translate(-250, 0)"></use><use xlink:href="#transformed-82158" transform="translate(0, 0)"></use><use xlink:href="#transformed-82158" transform="translate(250, 0)"></use><use xlink:href="#transformed-82158" transform="translate(-250, 250)"></use><use xlink:href="#transformed-82158" transform="translate(0, 250)"></use><use xlink:href="#transformed-82158" transform="translate(250, 250)"></use></svg>